<?xml version="1.0" encoding="utf-8"?>
<!-- Generator: Adobe Illustrator 21.0.2, SVG Export Plug-In . SVG Version: 6.00 Build 0)  -->
<svg version="1.1" id="Calque_1" xmlns="http://www.w3.org/2000/svg" xmlns:xlink="http://www.w3.org/1999/xlink" x="0px" y="0px"
	 viewBox="0 0 16 16" style="enable-background:new 0 0 16 16;" xml:space="preserve">
<style type="text/css">
	.st0{fill:none;stroke:#000000;stroke-width:0.5;stroke-miterlimit:10;}
</style>
<g>
	<g>
		<path class="st0" d="M8,0.9c3.2,0,5.9,1.3,6,2.9c-0.1,1.6-2.8,2.9-6,2.9c-3.2,0-5.9-1.3-6-2.9C2.1,2.2,4.8,0.9,8,0.9z"/>
		<path class="st0" d="M14,11v1.4h0c0,1.6-2.7,3-6,3s-6-1.4-6-3V11"/>
		<path class="st0" d="M8,13.1"/>
		<path class="st0" d="M8,10.1"/>
		<path class="st0" d="M14,8v1.5h0c0,1.6-2.7,3-6,3s-6-1.4-6-3V8"/>
		<path class="st0" d="M14,5.2v1.3c0,1.6-2.7,3-6,3s-6-1.4-6-3V5.2"/>
		<path class="st0" d="M8,7.3"/>
	</g>
</g>
<line class="st0" x1="14" y1="12.4" x2="14" y2="3.8"/>
<line class="st0" x1="2" y1="3.8" x2="2" y2="12.4"/>
<circle cx="12.2" cy="7.1" r="0.5"/>
<circle cx="12.2" cy="9.9" r="0.5"/>
<circle cx="12.2" cy="12.7" r="0.5"/>
</svg>
