<?xml version="1.0" encoding="utf-8"?>
<!-- Generator: Adobe Illustrator 21.0.2, SVG Export Plug-In . SVG Version: 6.00 Build 0)  -->
<svg version="1.1" id="Layer_1" xmlns="http://www.w3.org/2000/svg" xmlns:xlink="http://www.w3.org/1999/xlink" x="0px" y="0px"
	 viewBox="0 0 512 512" style="enable-background:new 0 0 512 512;" xml:space="preserve">
<g>
	<path d="M270.9,431c-8.4-6.2-9.3-15.5-9.3-15.5l-3.2-20.1H158l-3.2,20.1c0,0-0.9,9.3-9.3,15.5c-8.4,6.2-15,11.5-8.4,12.4
		c6.4,0.9,66.6,0.1,71.1,0c4.5,0.1,64.7,0.9,71.1,0C285.9,442.5,279.3,437.2,270.9,431z"/>
	<path d="M37.3,262c0-9.3-7.6-16.9-16.9-16.9h-80.1c-9.3,0-16.9,7.6-16.9,16.9v177.2c0,9.3,7.6,16.9,16.9,16.9h80.1
		c9.3,0,16.9-7.6,16.9-16.9L37.3,262L37.3,262z M-28,264.1h16.9c1.2,0,2.1,0.9,2.1,2.1c0,1.2-0.9,2.1-2.1,2.1H-28
		c-1.2,0-2.1-1-2.1-2.1C-30.2,265-29.2,264.1-28,264.1z M-20.3,446c-4.7,0-8.4-3.8-8.4-8.4c0-4.7,3.8-8.4,8.4-8.4
		c4.7,0,8.4,3.8,8.4,8.4C-11.9,442.2-15.6,446-20.3,446z M26.7,422.3h-92.8V280.9h92.8L26.7,422.3L26.7,422.3z"/>
	<path d="M565,148H391.4c-13.1,0-23.7,10.6-23.7,23.7v248.4c0,13.1,10.6,23.7,23.7,23.7H565c13.1,0,23.7-10.6,23.7-23.7V171.7
		C588.6,158.6,578,148,565,148z M444.2,430.6c-6.5,0-11.8-5.3-11.8-11.8c0-6.5,5.3-11.8,11.8-11.8c6.5,0,11.8,5.3,11.8,11.8
		C456,425.3,450.7,430.6,444.2,430.6z M478.2,430.6c-6.5,0-11.8-5.3-11.8-11.8c0-6.5,5.3-11.8,11.8-11.8c6.5,0,11.8,5.3,11.8,11.8
		C490,425.3,484.7,430.6,478.2,430.6z M512.2,430.6c-6.5,0-11.8-5.3-11.8-11.8c0-6.5,5.3-11.8,11.8-11.8c6.5,0,11.8,5.3,11.8,11.8
		C524,425.3,518.7,430.6,512.2,430.6z M573.8,396.5H382.5V168.7h191.3V396.5L573.8,396.5z"/>
	<path d="M421.6,128.1h29.1V75.4c0-10.7-8.7-19.4-19.4-19.4H-14.8c-10.7,0-19.4,8.7-19.4,19.4v149.7h29.1v-140h426.7V128.1
		L421.6,128.1z"/>
	<path d="M57.2,317.8V376h290.5v-58.2H57.2z M208.2,360.2c-7.3,0-13.3-6-13.3-13.3c0-7.3,6-13.3,13.3-13.3c7.3,0,13.3,6,13.3,13.3
		C221.5,354.3,215.6,360.2,208.2,360.2z"/>
</g>
</svg>
