<?xml version="1.0" encoding="utf-8"?>
<!-- Generator: Adobe Illustrator 21.0.2, SVG Export Plug-In . SVG Version: 6.00 Build 0)  -->
<svg version="1.1" id="Capa_1" xmlns="http://www.w3.org/2000/svg" xmlns:xlink="http://www.w3.org/1999/xlink" x="0px" y="0px"
	 viewBox="0 0 430.1 430.1" style="enable-background:new 0 0 430.1 430.1;" xml:space="preserve">
<g>
	<path id="LinkedIn" d="M382.6,225.3v123.9h-71.8V233.6c0-29-10.4-48.8-36.4-48.8c-19.8,0-31.6,13.4-36.8,26.3
		c-1.9,4.6-2.4,11-2.4,17.5v120.6h-71.8c0,0,1-195.7,0-216h71.8v30.6c-0.1,0.2-0.3,0.5-0.5,0.7h0.5v-0.7
		c9.5-14.7,26.6-35.7,64.7-35.7C347.1,128,382.6,158.9,382.6,225.3z M88.2,29c-24.6,0-40.6,16.1-40.6,37.3
		c0,20.7,15.6,37.3,39.7,37.3h0.5c25,0,40.6-16.6,40.6-37.3C127.9,45.1,112.8,29,88.2,29z M51.8,349.1h71.8v-216H51.8V349.1z"/>
</g>
</svg>
